<svg xmlns="http://www.w3.org/2000/svg" version="1.1" xmlns:xlink="http://www.w3.org/1999/xlink" xmlns:svgjs="http://svgjs.dev/svgjs" width="1500" height="1500" viewBox="0 0 1500 1500"><rect width="1500" height="1500" fill="#2979ff"></rect><g transform="matrix(0.6666666666666666,0,0,0.6666666666666666,249.39393939393938,603.7296918795838)"><svg viewBox="0 0 396 116" data-background-color="#2979ff" preserveAspectRatio="xMidYMid meet" height="439" width="1500" xmlns="http://www.w3.org/2000/svg" xmlns:xlink="http://www.w3.org/1999/xlink"><g id="tight-bounds" transform="matrix(1,0,0,1,0.2400000000000091,-0.024980380518371703)"><svg viewBox="0 0 395.52 116.0499607610367" height="116.0499607610367" width="395.52"><g><svg viewBox="0 0 698.749325785019 205.02081270012212" height="116.0499607610367" width="395.52"><g><rect width="9.508255044435785" height="178.0209661650843" x="420.410720011612" y="13.49992326751891" fill="#ffffff" opacity="1" stroke-width="0" stroke="transparent" fill-opacity="1" class="rect-qz-0" data-fill-palette-color="primary" rx="1%" id="qz-0" data-palette-color="#ffffff"></rect></g><g transform="matrix(1,0,0,1,0,28.33500378127593)"><svg viewBox="0 0 395.52 148.35080513757026" height="148.35080513757026" width="395.52"><g id="textblocktransform"><svg viewBox="0 0 395.52 148.35080513757026" height="148.35080513757026" width="395.52" id="textblock"><g><svg viewBox="0 0 395.52 105.43519888346127" height="105.43519888346127" width="395.52"><g transform="matrix(1,0,0,1,0,0)"><svg width="395.52" viewBox="0.45 -37.5 143.29000000000002 38.2" height="105.43519888346127" data-palette-color="#ffffff"><path d="M8.85 0L8.85-29.4 0.45-29.4 0.45-35 23.35-35 23.35-29.4 14.95-29.4 14.95 0 8.85 0ZM35.9 0.7Q33.2 0.7 30.52 0.13 27.85-0.45 25.85-1.45L25.85-1.45 26.6-8.25Q31.7-5.45 36.3-5.45L36.3-5.45Q38.7-5.45 40.05-6.43 41.4-7.4 41.4-9.2L41.4-9.2Q41.4-10.55 40.72-11.53 40.05-12.5 38.57-13.43 37.1-14.35 34.35-15.6L34.35-15.6Q29.9-17.6 27.87-19.85 25.85-22.1 25.85-25.75L25.85-25.75Q25.85-28.65 27.25-30.9 28.65-33.15 31.3-34.43 33.95-35.7 37.6-35.7L37.6-35.7Q42.15-35.7 46.7-33.65L46.7-33.65 46.05-27.05Q43.5-28.3 41.37-28.93 39.25-29.55 37.1-29.55L37.1-29.55Q34.8-29.55 33.57-28.65 32.35-27.75 32.35-26L32.35-26Q32.35-24.65 33.15-23.73 33.95-22.8 35.12-22.13 36.3-21.45 39.4-20L39.4-20Q43.85-17.85 45.87-15.5 47.9-13.15 47.9-9.45L47.9-9.45Q47.9-4.8 44.7-2.05 41.5 0.7 35.9 0.7L35.9 0.7ZM69.7-18.95Q75.5-16.7 75.5-9.95L75.5-9.95Q75.5-5.25 72.84-2.63 70.2 0 65.55 0L65.55 0 52.45 0 52.45-35 64.15-35Q68.45-35 70.57-32.85 72.7-30.7 72.7-26.55L72.7-26.55Q72.7-21.2 69.7-18.95L69.7-18.95ZM58.55-29.4L58.55-21.15 63.05-21.15Q64.9-21.15 65.8-22.15 66.7-23.15 66.7-25.25L66.7-25.25Q66.7-27.45 65.8-28.43 64.9-29.4 63.05-29.4L63.05-29.4 58.55-29.4ZM64.45-5.6Q66.75-5.6 67.97-6.73 69.2-7.85 69.2-10.55L69.2-10.55Q69.2-13.35 67.92-14.5 66.65-15.65 64.45-15.65L64.45-15.65 58.55-15.65 58.55-5.6 64.45-5.6ZM84.54 0.5Q81.74 0.5 79.82-1.33 77.89-3.15 77.89-6.45L77.89-6.45Q77.89-9.9 79.97-11.98 82.04-14.05 84.77-14.95 87.49-15.85 89.74-15.95L89.74-15.95Q89.74-18.15 88.94-19.1 88.14-20.05 86.19-20.05L86.19-20.05Q84.69-20.05 83.29-19.58 81.89-19.1 80.14-18.15L80.14-18.15 79.74-23.2Q83.74-25.4 87.79-25.4L87.79-25.4Q91.54-25.4 93.67-23.18 95.79-20.95 95.79-16.15L95.79-16.15 95.79-8.6Q95.79-6.75 95.94-5.9 96.09-5.05 96.42-4.83 96.74-4.6 97.44-4.6L97.44-4.6 98.24-4.6 97.84 0.5 95.19 0.5Q93.79 0.5 92.52-0.3 91.24-1.1 90.64-2.4L90.64-2.4Q89.29-0.95 87.89-0.23 86.49 0.5 84.54 0.5L84.54 0.5ZM86.59-4.25Q88.29-4.25 89.79-6.05L89.79-6.05 89.79-11.75Q87.39-11.45 85.79-10.33 84.19-9.2 84.19-7.05L84.19-7.05Q84.19-5.6 84.84-4.93 85.49-4.25 86.59-4.25L86.59-4.25ZM112.49-25.4Q116.24-25.4 118.22-22.93 120.19-20.45 120.19-16.25L120.19-16.25 120.19 0 114.19 0 114.19-15.45Q114.19-20.5 110.79-20.5L110.79-20.5Q108.44-20.5 106.94-18.35L106.94-18.35 106.94 0 100.94 0 100.94-25 106.14-25 106.39-23.05Q108.84-25.4 112.49-25.4L112.49-25.4ZM124.59 0L124.59-37.5 130.59-37.5 130.59-15 136.74-25 143.54-25 136.14-13.2 143.74 0 136.94 0 130.59-11.35 130.59 0 124.59 0Z" opacity="1" transform="matrix(1,0,0,1,0,0)" fill="#ffffff" class="wordmark-text-0" data-fill-palette-color="primary" id="text-0"></path></svg></g></svg></g><g transform="matrix(1,0,0,1,19.77600000000001,130.32591889507327)"><svg viewBox="0 0 375.74399999999997 18.024886242497" height="18.024886242497" width="375.74399999999997"><g transform="matrix(1,0,0,1,0,0)"><svg width="375.74399999999997" viewBox="3.4 -39.45 1041.1499999999999 49.95" height="18.024886242497" data-palette-color="#ffffff"><path d="M21.05 0.35L21.05 0.35Q17.9 0.35 14.78-0.65 11.65-1.65 9.08-3.78 6.5-5.9 4.95-9.22 3.4-12.55 3.4-17.15L3.4-17.15Q3.4-20.45 4.63-23.98 5.85-27.5 8.33-30.48 10.8-33.45 14.58-35.3 18.35-37.15 23.4-37.15L23.4-37.15Q26.55-37.15 29.68-36.15 32.8-35.15 35.38-33.02 37.95-30.9 39.5-27.58 41.05-24.25 41.05-19.65L41.05-19.65Q41.05-16.35 39.83-12.83 38.6-9.3 36.13-6.33 33.65-3.35 29.88-1.5 26.1 0.35 21.05 0.35ZM21.15-6.65L21.15-6.65Q24.55-6.65 26.93-7.83 29.3-9 30.75-10.9 32.2-12.8 32.88-15 33.55-17.2 33.55-19.25L33.55-19.25Q33.55-21.45 32.77-23.4 32-25.35 30.6-26.88 29.2-28.4 27.3-29.28 25.4-30.15 23.1-30.15L23.1-30.15Q19.7-30.15 17.35-28.98 15-27.8 13.58-25.9 12.15-24 11.53-21.8 10.9-19.6 10.9-17.55L10.9-17.55Q10.9-15.4 11.65-13.43 12.4-11.45 13.75-9.93 15.1-8.4 16.98-7.53 18.85-6.65 21.15-6.65ZM74.15 0.6L74.15 0.6Q71.4 0.6 69.62-0.33 67.84-1.25 66.65-2.75L66.65-2.75 67.4-4.25 66.84 0 59.85 0 64.7-39.45 71.65-39.45 69.05-18.1 69.3-20.35Q70.59-21.45 72.52-22.2 74.45-22.95 76.9-22.95L76.9-22.95Q79.55-22.95 81.87-21.78 84.2-20.6 85.62-18.15 87.05-15.7 87.05-11.9L87.05-11.9Q87.05-8.65 85.4-5.78 83.75-2.9 80.84-1.15 77.95 0.6 74.15 0.6ZM73.3-5.3L73.3-5.3Q75.05-5.3 76.27-5.9 77.5-6.5 78.32-7.43 79.15-8.35 79.52-9.43 79.9-10.5 79.9-11.45L79.9-11.45Q79.9-13.4 79.2-14.75 78.5-16.1 77.25-16.78 76-17.45 74.34-17.45L74.34-17.45Q72.34-17.45 70.9-16.5 69.45-15.55 68.59-13.95L68.59-13.95 67.95-8.9Q68.3-8.1 68.8-7.43 69.3-6.75 69.95-6.28 70.59-5.8 71.42-5.55 72.25-5.3 73.3-5.3ZM99.69 0.5L99.69 0.5Q97.54 0.55 95.49-0.7 93.44-1.95 92.12-4.35 90.79-6.75 90.79-10.15L90.79-10.15Q90.79-12.6 91.69-14.88 92.59-17.15 94.24-18.98 95.89-20.8 98.14-21.88 100.39-22.95 103.09-22.95L103.09-22.95Q105.29-22.95 106.67-22.45 108.04-21.95 108.89-21.18 109.74-20.4 110.34-19.5L110.34-19.5 109.89-18.45 110.99-21.85 117.49-21.85 114.84 0 107.84 0 108.39-4.75 108.79-3.25Q108.69-3.25 108.09-2.68 107.49-2.1 106.37-1.35 105.24-0.6 103.57-0.03 101.89 0.55 99.69 0.5ZM103.64-5.1L103.64-5.1Q104.64-5.1 105.57-5.48 106.49-5.85 107.34-6.58 108.19-7.3 108.84-8.4L108.84-8.4 109.49-13.75Q109.24-14.85 108.54-15.63 107.84-16.4 106.79-16.82 105.74-17.25 104.39-17.25L104.39-17.25Q102.69-17.25 101.49-16.65 100.29-16.05 99.52-15.1 98.74-14.15 98.39-13.08 98.04-12 98.04-11L98.04-11Q98.04-9.2 98.74-7.88 99.44-6.55 100.72-5.83 101.99-5.1 103.64-5.1ZM124.74-21.85L131.09-21.85 131.24-17.5 130.99-18.3Q132.39-20.35 134.72-21.63 137.04-22.9 140.09-22.9L140.09-22.9Q143.19-22.9 145.02-21.08 146.84-19.25 146.59-16.35L146.59-16.35 144.59 0 137.59 0 139.29-13.75Q139.39-15.2 138.77-16.07 138.14-16.95 136.44-16.95L136.44-16.95Q134.84-16.95 133.52-15.9 132.19-14.85 131.34-13.05 130.49-11.25 130.19-8.9L130.19-8.9 129.09 0 122.09 0 124.74-21.85ZM167.69-6L170.64-1.4Q169.14-0.45 167.06 0.1 164.99 0.65 162.99 0.65L162.99 0.65Q161.64 0.65 159.69 0.23 157.74-0.2 155.84-1.33 153.94-2.45 152.66-4.53 151.39-6.6 151.39-9.85L151.39-9.85Q151.39-12 152.14-14.2 152.89-16.4 154.39-18.25 155.89-20.1 158.19-21.23 160.49-22.35 163.64-22.35L163.64-22.35Q166.99-22.35 169.26-21.35 171.54-20.35 172.99-18.9L172.99-18.9 169.04-14.65Q168.39-15.3 167.14-15.95 165.89-16.6 164.09-16.6L164.09-16.6Q162.64-16.6 161.34-15.8 160.04-15 159.24-13.6 158.44-12.2 158.44-10.35L158.44-10.35Q158.44-8.85 159.14-7.65 159.84-6.45 161.14-5.73 162.44-5 164.24-5L164.24-5Q165.24-5 166.11-5.25 166.99-5.5 167.69-6L167.69-6ZM187.74 0.6L187.74 0.6Q185.79 0.6 183.69-0.03 181.59-0.65 179.76-1.95 177.94-3.25 176.81-5.3 175.69-7.35 175.69-10.2L175.69-10.2Q175.69-12.2 176.36-14.4 177.04-16.6 178.54-18.53 180.04-20.45 182.54-21.65 185.04-22.85 188.64-22.85L188.64-22.85Q191.59-22.85 194.31-21.63 197.04-20.4 198.81-18 200.59-15.6 200.59-12.05L200.59-12.05Q200.59-10.8 200.24-9.13 199.89-7.45 199.04-5.75 198.19-4.05 196.74-2.63 195.29-1.2 193.06-0.3 190.84 0.6 187.74 0.6ZM187.94-5.15L187.94-5.15Q190.09-5.15 191.29-6.25 192.49-7.35 192.99-8.9 193.49-10.45 193.49-11.75L193.49-11.75Q193.49-13.5 192.91-14.58 192.34-15.65 191.49-16.2 190.64-16.75 189.79-16.95 188.94-17.15 188.39-17.15L188.39-17.15Q186.34-17.15 185.09-16.07 183.84-15 183.29-13.45 182.74-11.9 182.74-10.55L182.74-10.55Q182.74-8.3 183.66-7.15 184.59-6 185.81-5.58 187.04-5.15 187.94-5.15ZM235.58-6L238.53-1.4Q237.03-0.45 234.96 0.1 232.88 0.65 230.88 0.65L230.88 0.65Q229.53 0.65 227.58 0.23 225.63-0.2 223.73-1.33 221.83-2.45 220.56-4.53 219.28-6.6 219.28-9.85L219.28-9.85Q219.28-12 220.03-14.2 220.78-16.4 222.28-18.25 223.78-20.1 226.08-21.23 228.38-22.35 231.53-22.35L231.53-22.35Q234.88-22.35 237.16-21.35 239.43-20.35 240.88-18.9L240.88-18.9 236.93-14.65Q236.28-15.3 235.03-15.95 233.78-16.6 231.98-16.6L231.98-16.6Q230.53-16.6 229.23-15.8 227.93-15 227.13-13.6 226.33-12.2 226.33-10.35L226.33-10.35Q226.33-8.85 227.03-7.65 227.73-6.45 229.03-5.73 230.33-5 232.13-5L232.13-5Q233.13-5 234.01-5.25 234.88-5.5 235.58-6L235.58-6ZM255.63 0.6L255.63 0.6Q253.68 0.6 251.58-0.03 249.48-0.65 247.65-1.95 245.83-3.25 244.7-5.3 243.58-7.35 243.58-10.2L243.58-10.2Q243.58-12.2 244.25-14.4 244.93-16.6 246.43-18.53 247.93-20.45 250.43-21.65 252.93-22.85 256.53-22.85L256.53-22.85Q259.48-22.85 262.2-21.63 264.93-20.4 266.7-18 268.48-15.6 268.48-12.05L268.48-12.05Q268.48-10.8 268.13-9.13 267.78-7.45 266.93-5.75 266.08-4.05 264.63-2.63 263.18-1.2 260.95-0.3 258.73 0.6 255.63 0.6ZM255.83-5.15L255.83-5.15Q257.98-5.15 259.18-6.25 260.38-7.35 260.88-8.9 261.38-10.45 261.38-11.75L261.38-11.75Q261.38-13.5 260.8-14.58 260.23-15.65 259.38-16.2 258.53-16.75 257.68-16.95 256.83-17.15 256.28-17.15L256.28-17.15Q254.23-17.15 252.98-16.07 251.73-15 251.18-13.45 250.63-11.9 250.63-10.55L250.63-10.55Q250.63-8.3 251.55-7.15 252.48-6 253.7-5.58 254.93-5.15 255.83-5.15ZM275.28-21.85L281.63-21.85 281.73-17.6 281.63-18.3Q283.18-20.5 285.3-21.73 287.43-22.95 290.18-22.95L290.18-22.95Q292.83-22.95 294.45-21.93 296.08-20.9 296.33-18.6L296.33-18.6 296.23-18.55Q297.83-20.45 299.95-21.7 302.08-22.95 304.23-22.95L304.23-22.95Q307.48-22.95 309.18-21.13 310.88-19.3 310.58-16.4L310.58-16.4 308.58 0 301.63 0 303.28-13.5Q303.38-14.95 303.1-15.88 302.83-16.8 301.38-16.9L301.38-16.9Q299.68-16.9 298.38-15.73 297.08-14.55 296.28-12.73 295.48-10.9 295.23-8.95L295.23-8.95 294.13 0 287.13 0 288.78-13.5Q288.88-14.95 288.53-15.88 288.18-16.8 286.73-16.9L286.73-16.9Q285.08-16.9 283.8-15.73 282.53-14.55 281.75-12.75 280.98-10.95 280.73-9.05L280.73-9.05 279.63 0 272.63 0 275.28-21.85ZM342.47 0.6L342.47 0.6Q340.52 0.6 338.42-0.03 336.32-0.65 334.5-1.95 332.67-3.25 331.55-5.3 330.42-7.35 330.42-10.2L330.42-10.2Q330.42-12.2 331.1-14.4 331.77-16.6 333.27-18.53 334.77-20.45 337.27-21.65 339.77-22.85 343.37-22.85L343.37-22.85Q346.32-22.85 349.05-21.63 351.77-20.4 353.55-18 355.32-15.6 355.32-12.05L355.32-12.05Q355.32-10.8 354.97-9.13 354.62-7.45 353.77-5.75 352.92-4.05 351.47-2.63 350.02-1.2 347.8-0.3 345.57 0.6 342.47 0.6ZM342.67-5.15L342.67-5.15Q344.82-5.15 346.02-6.25 347.22-7.35 347.72-8.9 348.22-10.45 348.22-11.75L348.22-11.75Q348.22-13.5 347.65-14.58 347.07-15.65 346.22-16.2 345.37-16.75 344.52-16.95 343.67-17.15 343.12-17.15L343.12-17.15Q341.07-17.15 339.82-16.07 338.57-15 338.02-13.45 337.47-11.9 337.47-10.55L337.47-10.55Q337.47-8.3 338.4-7.15 339.32-6 340.55-5.58 341.77-5.15 342.67-5.15ZM377.12-21.85L383.47-21.85 383.56-17.6 383.47-18.3Q385.02-20.5 387.14-21.73 389.27-22.95 392.02-22.95L392.02-22.95Q394.67-22.95 396.29-21.93 397.92-20.9 398.17-18.6L398.17-18.6 398.06-18.55Q399.67-20.45 401.79-21.7 403.92-22.95 406.06-22.95L406.06-22.95Q409.31-22.95 411.02-21.13 412.72-19.3 412.42-16.4L412.42-16.4 410.42 0 403.47 0 405.12-13.5Q405.22-14.95 404.94-15.88 404.67-16.8 403.22-16.9L403.22-16.9Q401.52-16.9 400.22-15.73 398.92-14.55 398.12-12.73 397.31-10.9 397.06-8.95L397.06-8.95 395.97 0 388.97 0 390.62-13.5Q390.72-14.95 390.37-15.88 390.02-16.8 388.56-16.9L388.56-16.9Q386.92-16.9 385.64-15.73 384.37-14.55 383.59-12.75 382.81-10.95 382.56-9.05L382.56-9.05 381.47 0 374.47 0 377.12-21.85ZM430.01-5.35L430.01-5.35Q431.01-5.35 431.94-5.7 432.86-6.05 433.81-6.55L433.81-6.55 436.26-1.15Q434.61-0.35 432.79 0.1 430.96 0.55 429.26 0.55L429.26 0.55Q425.66 0.55 422.99-0.68 420.31-1.9 418.81-4.42 417.31-6.95 417.31-10.75L417.31-10.75Q417.31-12.7 418.04-14.8 418.76-16.9 420.29-18.73 421.81-20.55 424.29-21.7 426.76-22.85 430.26-22.85L430.26-22.85Q432.16-22.85 434.04-22.38 435.91-21.9 437.49-20.68 439.06-19.45 440.19-17.25 441.31-15.05 441.76-11.55L441.76-11.55 424.16-7.2 423.06-11.1 436.76-14.65 434.31-13.9Q433.91-15.6 432.74-16.5 431.56-17.4 430.01-17.4L430.01-17.4Q427.96-17.4 426.71-16.55 425.46-15.7 424.89-14.35 424.31-13 424.31-11.55L424.31-11.55Q424.31-9.05 425.24-7.7 426.16-6.35 427.49-5.85 428.81-5.35 430.01-5.35ZM445.41 0L450.21-39.45 457.21-39.45 452.41 0 445.41 0ZM468.61-17.05L468.56-18.3Q469.96-20.35 472.28-21.63 474.61-22.9 477.66-22.9L477.66-22.9Q480.76-22.9 482.58-21.08 484.41-19.25 484.16-16.35L484.16-16.35 482.16 0 475.16 0 476.81-13.75Q476.91-15.2 476.31-16.07 475.71-16.95 474.01-16.95L474.01-16.95Q472.41-16.95 471.08-15.9 469.76-14.85 468.91-13.05 468.06-11.25 467.76-8.9L467.76-8.9 466.66 0 459.66 0 464.46-39.45 471.31-39.45 468.61-17.05ZM501.06 0.6L501.06 0.6Q499.11 0.6 497-0.03 494.91-0.65 493.08-1.95 491.25-3.25 490.13-5.3 489-7.35 489-10.2L489-10.2Q489-12.2 489.68-14.4 490.36-16.6 491.86-18.53 493.36-20.45 495.86-21.65 498.36-22.85 501.96-22.85L501.96-22.85Q504.91-22.85 507.63-21.63 510.36-20.4 512.13-18 513.9-15.6 513.9-12.05L513.9-12.05Q513.9-10.8 513.56-9.13 513.21-7.45 512.36-5.75 511.5-4.05 510.06-2.63 508.61-1.2 506.38-0.3 504.16 0.6 501.06 0.6ZM501.25-5.15L501.25-5.15Q503.41-5.15 504.61-6.25 505.81-7.35 506.31-8.9 506.81-10.45 506.81-11.75L506.81-11.75Q506.81-13.5 506.23-14.58 505.66-15.65 504.81-16.2 503.96-16.75 503.11-16.95 502.25-17.15 501.71-17.15L501.71-17.15Q499.66-17.15 498.41-16.07 497.16-15 496.61-13.45 496.06-11.9 496.06-10.55L496.06-10.55Q496.06-8.3 496.98-7.15 497.91-6 499.13-5.58 500.36-5.15 501.25-5.15ZM520.7-21.85L527-21.85 526.8-17Q528-18.95 529.68-20.28 531.35-21.6 533.08-22.28 534.8-22.95 536-22.95L536-22.95 534.8-15.95Q532.4-16.25 530.5-15.15 528.6-14.05 527.45-12.25 526.3-10.45 526.05-8.55L526.05-8.55 525 0 518.05 0 520.7-21.85ZM558.25-21.95L559.4-31.45 566.4-31.45 565.25-21.95 570.55-21.95 569.9-16.5 564.6-16.5 562.6 0 555.6 0 557.6-16.5 554.2-16.5 554.85-21.95 558.25-21.95ZM573.39 0L576.09-21.85 583.09-21.85 580.39 0 573.39 0ZM576.54-29.55L576.54-29.55Q576.54-31.15 577.64-32.25 578.74-33.35 580.54-33.35L580.54-33.35Q581.79-33.35 583.04-32.63 584.29-31.9 584.29-30.1L584.29-30.1Q584.29-28.55 583.19-27.43 582.09-26.3 580.29-26.3L580.29-26.3Q579.04-26.3 577.79-27.03 576.54-27.75 576.54-29.55ZM600.44 0.6L600.44 0.6Q598.49 0.6 596.39-0.25 594.29-1.1 593.29-2.45L593.29-2.45 594.89-4.25 593.24 10.5 586.29 10.5 590.44-22.35 596.44-22.35 596.64-18.1 595.14-19.6Q597.54-21.1 599.82-22.03 602.09-22.95 604.09-22.95L604.09-22.95Q606.84-22.95 609.14-21.73 611.44-20.5 612.82-18.3 614.19-16.1 614.19-13.05L614.19-13.05Q614.19-9.45 612.54-6.33 610.89-3.2 607.82-1.3 604.74 0.6 600.44 0.6ZM600.24-5.25L600.24-5.25Q602.44-5.25 603.97-6.2 605.49-7.15 606.29-8.7 607.09-10.25 607.09-11.95L607.09-11.95Q607.09-13.6 606.29-14.83 605.49-16.05 604.24-16.73 602.99-17.4 601.59-17.4L601.59-17.4Q600.44-17.4 599.47-17.03 598.49-16.65 597.62-15.93 596.74-15.2 595.94-14.1L595.94-14.1 595.29-8.75Q595.59-7.95 596.07-7.3 596.54-6.65 597.14-6.2 597.74-5.75 598.52-5.5 599.29-5.25 600.24-5.25ZM629.89 0.6L629.89 0.6Q627.94 0.6 625.84-0.03 623.74-0.65 621.91-1.95 620.09-3.25 618.96-5.3 617.84-7.35 617.84-10.2L617.84-10.2Q617.84-12.2 618.51-14.4 619.19-16.6 620.69-18.53 622.19-20.45 624.69-21.65 627.19-22.85 630.79-22.85L630.79-22.85Q633.74-22.85 636.46-21.63 639.19-20.4 640.96-18 642.74-15.6 642.74-12.05L642.74-12.05Q642.74-10.8 642.39-9.13 642.04-7.45 641.19-5.75 640.34-4.05 638.89-2.63 637.44-1.2 635.21-0.3 632.99 0.6 629.89 0.6ZM630.09-5.15L630.09-5.15Q632.24-5.15 633.44-6.25 634.64-7.35 635.14-8.9 635.64-10.45 635.64-11.75L635.64-11.75Q635.64-13.5 635.06-14.58 634.49-15.65 633.64-16.2 632.79-16.75 631.94-16.95 631.09-17.15 630.54-17.15L630.54-17.15Q628.49-17.15 627.24-16.07 625.99-15 625.44-13.45 624.89-11.9 624.89-10.55L624.89-10.55Q624.89-8.3 625.81-7.15 626.74-6 627.96-5.58 629.19-5.15 630.09-5.15ZM672.23 0.6L672.23 0.6Q669.13 0.6 666.68-0.85 664.23-2.3 662.86-4.73 661.48-7.15 661.48-10L661.48-10Q661.48-12.3 662.31-14.58 663.13-16.85 664.81-18.75 666.48-20.65 668.93-21.8 671.38-22.95 674.58-22.95L674.58-22.95Q677.23-22.95 679.28-22 681.33-21.05 682.43-19.7L682.43-19.7 681.23-18.1 683.83-39.45 690.78-39.45 685.93 0 678.93 0 679.48-4.25 679.83-2.75Q677.98-1.35 676.21-0.38 674.43 0.6 672.23 0.6ZM674.43-5.3L674.43-5.3Q675.53-5.3 676.51-5.68 677.48-6.05 678.38-6.78 679.28-7.5 680.03-8.6L680.03-8.6 680.68-13.95Q680.43-15.05 679.68-15.83 678.93-16.6 677.81-17.03 676.68-17.45 675.28-17.45L675.28-17.45Q673.33-17.45 671.83-16.68 670.33-15.9 669.51-14.48 668.68-13.05 668.68-11.05L668.68-11.05Q668.68-9.3 669.38-8 670.08-6.7 671.38-6 672.68-5.3 674.43-5.3ZM705.53-5.35L705.53-5.35Q706.53-5.35 707.46-5.7 708.38-6.05 709.33-6.55L709.33-6.55 711.78-1.15Q710.13-0.35 708.31 0.1 706.48 0.55 704.78 0.55L704.78 0.55Q701.18 0.55 698.51-0.68 695.83-1.9 694.33-4.42 692.83-6.95 692.83-10.75L692.83-10.75Q692.83-12.7 693.56-14.8 694.28-16.9 695.81-18.73 697.33-20.55 699.81-21.7 702.28-22.85 705.78-22.85L705.78-22.85Q707.68-22.85 709.56-22.38 711.43-21.9 713.01-20.68 714.58-19.45 715.71-17.25 716.83-15.05 717.28-11.55L717.28-11.55 699.68-7.2 698.58-11.1 712.28-14.65 709.83-13.9Q709.43-15.6 708.26-16.5 707.08-17.4 705.53-17.4L705.53-17.4Q703.48-17.4 702.23-16.55 700.98-15.7 700.41-14.35 699.83-13 699.83-11.55L699.83-11.55Q699.83-9.05 700.76-7.7 701.68-6.35 703.01-5.85 704.33-5.35 705.53-5.35ZM744.43 0.5L744.43 0.5Q742.28 0.55 740.23-0.7 738.18-1.95 736.85-4.35 735.53-6.75 735.53-10.15L735.53-10.15Q735.53-12.6 736.43-14.88 737.33-17.15 738.98-18.98 740.63-20.8 742.88-21.88 745.13-22.95 747.83-22.95L747.83-22.95Q750.03-22.95 751.4-22.45 752.78-21.95 753.63-21.18 754.48-20.4 755.08-19.5L755.08-19.5 754.63-18.45 755.73-21.85 762.23-21.85 759.58 0 752.58 0 753.13-4.75 753.53-3.25Q753.43-3.25 752.83-2.68 752.23-2.1 751.1-1.35 749.98-0.6 748.3-0.03 746.63 0.55 744.43 0.5ZM748.38-5.1L748.38-5.1Q749.38-5.1 750.3-5.48 751.23-5.85 752.08-6.58 752.93-7.3 753.58-8.4L753.58-8.4 754.23-13.75Q753.98-14.85 753.28-15.63 752.58-16.4 751.53-16.82 750.48-17.25 749.13-17.25L749.13-17.25Q747.43-17.25 746.23-16.65 745.03-16.05 744.25-15.1 743.48-14.15 743.13-13.08 742.78-12 742.78-11L742.78-11Q742.78-9.2 743.48-7.88 744.18-6.55 745.45-5.83 746.73-5.1 748.38-5.1ZM771.32-21.95L772.47-31.45 779.47-31.45 778.32-21.95 783.62-21.95 782.97-16.5 777.67-16.5 775.67 0 768.67 0 770.67-16.5 767.27-16.5 767.92-21.95 771.32-21.95ZM798.87-5.35L798.87-5.35Q799.87-5.35 800.8-5.7 801.72-6.05 802.67-6.55L802.67-6.55 805.12-1.15Q803.47-0.35 801.65 0.1 799.82 0.55 798.12 0.55L798.12 0.55Q794.52 0.55 791.85-0.68 789.17-1.9 787.67-4.42 786.17-6.95 786.17-10.75L786.17-10.75Q786.17-12.7 786.9-14.8 787.62-16.9 789.15-18.73 790.67-20.55 793.15-21.7 795.62-22.85 799.12-22.85L799.12-22.85Q801.02-22.85 802.9-22.38 804.77-21.9 806.35-20.68 807.92-19.45 809.05-17.25 810.17-15.05 810.62-11.55L810.62-11.55 793.02-7.2 791.92-11.1 805.62-14.65 803.17-13.9Q802.77-15.6 801.6-16.5 800.42-17.4 798.87-17.4L798.87-17.4Q796.82-17.4 795.57-16.55 794.32-15.7 793.75-14.35 793.17-13 793.17-11.55L793.17-11.55Q793.17-9.05 794.1-7.7 795.02-6.35 796.35-5.85 797.67-5.35 798.87-5.35ZM816.92-21.85L823.27-21.85 823.42-17.5 823.17-18.3Q824.57-20.35 826.89-21.63 829.22-22.9 832.27-22.9L832.27-22.9Q835.37-22.9 837.19-21.08 839.02-19.25 838.77-16.35L838.77-16.35 836.77 0 829.77 0 831.47-13.75Q831.57-15.2 830.94-16.07 830.32-16.95 828.62-16.95L828.62-16.95Q827.02-16.95 825.69-15.9 824.37-14.85 823.52-13.05 822.67-11.25 822.37-8.9L822.37-8.9 821.27 0 814.27 0 816.92-21.85ZM854.37 0.6L854.37 0.6Q851.27 0.6 848.82-0.85 846.37-2.3 844.99-4.73 843.62-7.15 843.62-10L843.62-10Q843.62-12.3 844.44-14.58 845.27-16.85 846.94-18.75 848.62-20.65 851.07-21.8 853.52-22.95 856.72-22.95L856.72-22.95Q859.37-22.95 861.42-22 863.47-21.05 864.57-19.7L864.57-19.7 863.37-18.1 865.97-39.45 872.92-39.45 868.07 0 861.07 0 861.62-4.25 861.97-2.75Q860.12-1.35 858.34-0.38 856.57 0.6 854.37 0.6ZM856.57-5.3L856.57-5.3Q857.67-5.3 858.64-5.68 859.62-6.05 860.52-6.78 861.42-7.5 862.17-8.6L862.17-8.6 862.82-13.95Q862.57-15.05 861.82-15.83 861.07-16.6 859.94-17.03 858.82-17.45 857.42-17.45L857.42-17.45Q855.47-17.45 853.97-16.68 852.47-15.9 851.64-14.48 850.82-13.05 850.82-11.05L850.82-11.05Q850.82-9.3 851.52-8 852.22-6.7 853.52-6 854.82-5.3 856.57-5.3ZM875.26 0L877.96-21.85 884.96-21.85 882.26 0 875.26 0ZM878.41-29.55L878.41-29.55Q878.41-31.15 879.51-32.25 880.61-33.35 882.41-33.35L882.41-33.35Q883.66-33.35 884.91-32.63 886.16-31.9 886.16-30.1L886.16-30.1Q886.16-28.55 885.06-27.43 883.96-26.3 882.16-26.3L882.16-26.3Q880.91-26.3 879.66-27.03 878.41-27.75 878.41-29.55ZM892.16-21.85L898.51-21.85 898.61-17.6 898.51-18.3Q900.06-20.5 902.19-21.73 904.31-22.95 907.06-22.95L907.06-22.95Q909.71-22.95 911.34-21.93 912.96-20.9 913.21-18.6L913.21-18.6 913.11-18.55Q914.71-20.45 916.84-21.7 918.96-22.95 921.11-22.95L921.11-22.95Q924.36-22.95 926.06-21.13 927.76-19.3 927.46-16.4L927.46-16.4 925.46 0 918.51 0 920.16-13.5Q920.26-14.95 919.99-15.88 919.71-16.8 918.26-16.9L918.26-16.9Q916.56-16.9 915.26-15.73 913.96-14.55 913.16-12.73 912.36-10.9 912.11-8.95L912.11-8.95 911.01 0 904.01 0 905.66-13.5Q905.76-14.95 905.41-15.88 905.06-16.8 903.61-16.9L903.61-16.9Q901.96-16.9 900.69-15.73 899.41-14.55 898.64-12.75 897.86-10.95 897.61-9.05L897.61-9.05 896.51 0 889.51 0 892.16-21.85ZM945.06-5.35L945.06-5.35Q946.06-5.35 946.98-5.7 947.91-6.05 948.86-6.55L948.86-6.55 951.31-1.15Q949.66-0.35 947.83 0.1 946.01 0.55 944.31 0.55L944.31 0.55Q940.71 0.55 938.03-0.68 935.36-1.9 933.86-4.42 932.36-6.95 932.36-10.75L932.36-10.75Q932.36-12.7 933.08-14.8 933.81-16.9 935.33-18.73 936.86-20.55 939.33-21.7 941.81-22.85 945.31-22.85L945.31-22.85Q947.21-22.85 949.08-22.38 950.96-21.9 952.53-20.68 954.11-19.45 955.23-17.25 956.36-15.05 956.81-11.55L956.81-11.55 939.21-7.2 938.11-11.1 951.81-14.65 949.36-13.9Q948.96-15.6 947.78-16.5 946.61-17.4 945.06-17.4L945.06-17.4Q943.01-17.4 941.76-16.55 940.51-15.7 939.93-14.35 939.36-13 939.36-11.55L939.36-11.55Q939.36-9.05 940.28-7.7 941.21-6.35 942.53-5.85 943.86-5.35 945.06-5.35ZM963.11-21.85L969.46-21.85 969.61-17.5 969.36-18.3Q970.76-20.35 973.08-21.63 975.41-22.9 978.46-22.9L978.46-22.9Q981.56-22.9 983.38-21.08 985.21-19.25 984.96-16.35L984.96-16.35 982.96 0 975.96 0 977.66-13.75Q977.76-15.2 977.13-16.07 976.51-16.95 974.81-16.95L974.81-16.95Q973.21-16.95 971.88-15.9 970.56-14.85 969.71-13.05 968.86-11.25 968.56-8.9L968.56-8.9 967.46 0 960.46 0 963.11-21.85ZM994.7-21.95L995.85-31.45 1002.85-31.45 1001.7-21.95 1007-21.95 1006.35-16.5 1001.05-16.5 999.05 0 992.05 0 994.05-16.5 990.65-16.5 991.3-21.95 994.7-21.95ZM1021.55 0.6L1021.55 0.6Q1019.6 0.6 1017.5-0.03 1015.4-0.65 1013.58-1.95 1011.75-3.25 1010.63-5.3 1009.5-7.35 1009.5-10.2L1009.5-10.2Q1009.5-12.2 1010.18-14.4 1010.85-16.6 1012.35-18.53 1013.85-20.45 1016.35-21.65 1018.85-22.85 1022.45-22.85L1022.45-22.85Q1025.4-22.85 1028.13-21.63 1030.85-20.4 1032.63-18 1034.4-15.6 1034.4-12.05L1034.4-12.05Q1034.4-10.8 1034.05-9.13 1033.7-7.45 1032.85-5.75 1032-4.05 1030.55-2.63 1029.1-1.2 1026.88-0.3 1024.65 0.6 1021.55 0.6ZM1021.75-5.15L1021.75-5.15Q1023.9-5.15 1025.1-6.25 1026.3-7.35 1026.8-8.9 1027.3-10.45 1027.3-11.75L1027.3-11.75Q1027.3-13.5 1026.73-14.58 1026.15-15.65 1025.3-16.2 1024.45-16.75 1023.6-16.95 1022.75-17.15 1022.2-17.15L1022.2-17.15Q1020.15-17.15 1018.9-16.07 1017.65-15 1017.1-13.45 1016.55-11.9 1016.55-10.55L1016.55-10.55Q1016.55-8.3 1017.48-7.15 1018.4-6 1019.63-5.58 1020.85-5.15 1021.75-5.15ZM1037.4-3.2L1037.4-3.2Q1037.4-4.95 1038.72-6.1 1040.05-7.25 1041.5-7.25L1041.5-7.25Q1042.65-7.25 1043.6-6.3 1044.55-5.35 1044.55-3.95L1044.55-3.95Q1044.55-2.75 1043.92-1.88 1043.3-1 1042.4-0.5 1041.5 0 1040.6 0L1040.6 0Q1039.35 0 1038.37-0.88 1037.4-1.75 1037.4-3.2L1037.4-3.2Z" opacity="1" transform="matrix(1,0,0,1,0,0)" fill="#ffffff" class="slogan-text-1" data-fill-palette-color="secondary" id="text-1"></path></svg></g></svg></g></svg></g></svg></g><g transform="matrix(1,0,0,1,454.8096950676598,0)"><svg viewBox="0 0 243.93963071735922 205.02081270012212" height="205.02081270012212" width="243.93963071735922"><g><svg xmlns="http://www.w3.org/2000/svg" xmlns:xlink="http://www.w3.org/1999/xlink" version="1.1" x="0" y="0" viewBox="0.8392526835121924 23.775 286.42149463297545 240.725" enable-background="new 0 0 288 288.3" xml:space="preserve" height="205.02081270012212" width="243.93963071735922" class="icon-icon-0" data-fill-palette-color="accent" id="icon-0"><g fill="#ffffff" data-fill-palette-color="accent"><path d="M283 239h-8.8v-12.3c0-1.9-1.5-3.4-3.4-3.4h-17.2v-86.7c0-1.9-1.5-3.4-3.4-3.4h-19.9c-1.9 0-3.4 1.5-3.4 3.4v86.7h-37.5v-86.7c0-1.9-1.5-3.4-3.4-3.4h-19.9c-1.9 0-3.4 1.5-3.4 3.4v86.7h-37.5v-86.7c0-1.9-1.5-3.4-3.4-3.4h-19.9c-1.9 0-3.4 1.5-3.4 3.4v86.7H61v-86.7c0-1.9-1.5-3.4-3.4-3.4H37.7c-1.9 0-3.4 1.5-3.4 3.4v86.7H17.2c-1.9 0-3.4 1.5-3.4 3.4V239H5c-1.9 0-3.4 1.5-3.4 3.4v18.7c0 1.9 1.5 3.4 3.4 3.4h278c1.9 0 3.4-1.5 3.4-3.4v-18.7C286.4 240.5 284.9 239 283 239z" fill="#ffffff" data-fill-palette-color="accent"></path><path d="M4.1 114.1H140v-6.6c-5.9-0.3-11.6-1.6-17.1-4V90.1c3.1 1.6 6.5 2.9 10.2 4 3.7 1.1 6.9 1.6 9.7 1.6 2.3 0 4-0.3 5-0.8 1.1-0.6 1.6-1.5 1.6-2.8 0-0.9-0.4-1.6-1.2-2.3-0.8-0.6-2-1.3-3.8-2.1-1.8-0.8-4.2-1.7-7.3-2.8-3.4-1.3-6.2-2.7-8.3-4.3-2.1-1.6-3.6-3.3-4.6-5.3-1-2-1.4-4.4-1.4-7.3 0-4.4 1.4-7.9 4.3-10.4 2.9-2.5 7.1-4.1 12.9-4.7v-5.5h8.4v5.5c5.4 0.3 10.8 1.6 16.2 4l-4.8 11.5c-5.6-2.5-10.7-3.8-15.2-3.8-2.2 0-3.7 0.3-4.6 0.8-0.9 0.5-1.3 1.3-1.3 2.3 0 0.9 0.3 1.6 1 2.2 0.6 0.6 1.7 1.2 3.3 1.9 1.6 0.7 3.7 1.5 6.5 2.5 5.6 2 9.7 4.3 12.1 6.8 2.5 2.5 3.7 5.8 3.7 9.8 0 4.5-1.4 8.2-4.3 11-2.9 2.8-7.1 4.6-12.6 5.3v6.9h135.6c3.2 0 4.5-4.2 1.8-6L145.8 24.3c-1.1-0.7-2.5-0.7-3.6 0L2.3 108.1C-0.4 109.9 0.9 114.1 4.1 114.1z" fill="#ffffff" data-fill-palette-color="accent"></path></g></svg></g></svg></g></svg></g><defs></defs></svg><rect width="395.52" height="116.0499607610367" fill="none" stroke="none" visibility="hidden"></rect></g></svg></g></svg>