<svg xmlns="http://www.w3.org/2000/svg" width="500" height="500" viewBox="0 0 500 500" version="1.1"><path d="M 242.750 1.743 C 246.738 1.932, 253.262 1.932, 257.250 1.743 C 261.238 1.553, 257.975 1.397, 250 1.397 C 242.025 1.397, 238.762 1.553, 242.750 1.743 M 216 3.557 C 211.325 4.304, 206.637 4.934, 205.583 4.958 C 204.529 4.981, 203.934 5.267, 204.260 5.593 C 204.586 5.919, 210.174 5.468, 216.677 4.591 C 223.179 3.713, 230.075 2.843, 232 2.658 C 233.963 2.468, 233.085 2.293, 230 2.259 C 226.975 2.225, 220.675 2.809, 216 3.557 M 267.250 2.716 C 268.762 2.945, 271.238 2.945, 272.750 2.716 C 274.262 2.487, 273.025 2.300, 270 2.300 C 266.975 2.300, 265.738 2.487, 267.250 2.716 M 285 4.641 C 290.225 5.436, 299.419 7.185, 305.431 8.529 C 311.443 9.872, 316.536 10.798, 316.748 10.585 C 317.788 9.546, 283.967 2.928, 278.500 3.101 C 276.850 3.154, 279.775 3.846, 285 4.641 M 188.500 8.972 C 152.755 18.366, 118.135 36.045, 90.997 58.765 C 71.346 75.217, 51.688 97.794, 38.516 119.040 C 30.454 132.043, 19.967 154.109, 15.009 168.500 C 10.943 180.303, 5.938 199.059, 6.070 202 C 6.107 202.825, 7.634 197.650, 9.463 190.500 C 14.354 171.385, 19.147 158.439, 27.992 140.450 C 52.445 90.715, 90.715 52.445, 140.451 27.992 C 158.255 19.238, 171.069 14.498, 190.500 9.481 C 197.650 7.635, 202.600 6.115, 201.500 6.103 C 200.400 6.091, 194.550 7.382, 188.500 8.972 M 331.081 15.864 C 355.652 24.466, 379.568 37.267, 400.599 53.074 C 411.525 61.287, 430.394 79.091, 437 87.421 C 439.475 90.542, 443.019 94.762, 444.876 96.798 C 454.223 107.050, 473.563 140.658, 480.528 158.756 C 482.064 162.747, 483.492 165.842, 483.700 165.633 C 484.416 164.917, 477.834 149.531, 471.399 136.876 C 452.122 98.966, 422.293 65.731, 386 41.724 C 372.537 32.819, 346.829 20.197, 331.639 15.032 C 325.115 12.815, 319.265 11.025, 318.639 11.055 C 318.012 11.085, 323.611 13.250, 331.081 15.864 M 236.434 73.123 C 228.770 77.590, 186.182 103.049, 141.794 129.697 C 89.173 161.288, 60.869 178.836, 60.461 180.123 C 58.856 185.181, 55.353 185, 154.683 185 L 247.121 185 246.810 181.271 L 246.500 177.543 236.241 174.962 C 230.599 173.543, 225.485 171.885, 224.878 171.278 C 223.785 170.185, 223.949 155.717, 225.067 154.599 C 225.362 154.305, 228.809 155.149, 232.727 156.475 C 246.691 161.199, 255.902 161.688, 258.333 157.834 C 260.218 154.846, 258.010 153.029, 244.688 146.609 C 229.746 139.408, 225.255 135.323, 224.279 128.047 C 222.664 116.001, 228.268 107.774, 240.312 104.514 C 246.872 102.738, 247 102.639, 247 99.352 L 247 96 252.437 96 C 257.808 96, 257.877 96.038, 258.187 99.165 C 258.496 102.291, 258.627 102.363, 268.736 104.984 C 274.366 106.444, 279.196 107.863, 279.471 108.138 C 280.308 108.974, 274.835 122.126, 273.425 122.667 C 272.700 122.945, 269.720 122.499, 266.803 121.674 C 254.028 118.064, 245.536 118.713, 246.181 123.252 C 246.518 125.624, 250.140 127.755, 263.542 133.465 C 271.708 136.945, 278.425 142.728, 280.063 147.691 C 281.355 151.606, 280.663 159.477, 278.591 164.437 C 276.865 168.567, 271.602 172.435, 264.398 174.867 C 258.577 176.832, 258.500 176.908, 258.500 180.679 L 258.500 184.500 350.391 184.755 C 419.308 184.947, 442.634 184.719, 443.689 183.843 C 447.498 180.682, 445.262 179.055, 397.500 150.233 C 297.923 90.144, 254.987 65, 251.957 65 C 251.083 65, 244.098 68.655, 236.434 73.123 M 486.379 174.500 C 486.609 175.600, 488.025 181, 489.525 186.500 C 491.024 192, 493.085 200.775, 494.105 206 C 495.480 213.052, 495.811 213.982, 495.389 209.607 C 494.743 202.913, 489.903 182.510, 487.535 176.500 C 486.669 174.300, 486.148 173.400, 486.379 174.500 M 4.500 209 C 4.112 211.820, 4.020 214.353, 4.295 214.628 C 4.570 214.903, 5.112 212.820, 5.500 210 C 5.888 207.180, 5.980 204.647, 5.705 204.372 C 5.430 204.097, 4.888 206.180, 4.500 209 M 106.309 213.250 C 105.864 213.938, 105.275 241.050, 105 273.500 L 104.500 332.500 92.348 332.780 C 82.808 333, 79.917 333.395, 78.901 334.619 C 78.144 335.532, 77.431 339.873, 77.181 345.089 L 76.755 354 70.378 354 C 65.318 354, 63.584 354.416, 61.985 356.015 C 60.103 357.897, 60.007 358.928, 60.521 371.705 C 60.824 379.227, 61.561 385.971, 62.158 386.691 C 63.047 387.761, 97.761 388, 252.587 388 L 441.930 388 443.126 385.765 C 443.869 384.376, 444.352 378.477, 444.402 370.177 C 444.496 354.320, 444.296 354, 434.309 354 L 428 354 427.985 345.250 C 427.976 340.438, 427.544 335.825, 427.023 335 C 426.285 333.830, 423.353 333.428, 413.696 333.172 L 401.314 332.844 400.657 310.260 C 400.296 297.839, 400 271.520, 400 251.773 C 400 228.935, 399.623 215.165, 398.965 213.934 C 398.010 212.151, 396.732 212, 382.587 212 C 369.540 212, 367.040 212.247, 365.872 213.653 C 364.757 214.996, 364.407 226.262, 364 273.903 L 363.500 332.500 339 332.500 L 314.500 332.500 313.697 273.539 C 313.163 234.291, 312.537 214.147, 311.825 213.289 C 310.321 211.476, 280.480 211.441, 279.309 213.250 C 278.864 213.938, 278.275 241.050, 278 273.500 L 277.500 332.500 252.500 332.500 L 227.500 332.500 227 273.500 C 226.725 241.050, 226.136 213.938, 225.691 213.250 C 225.099 212.336, 220.589 212, 208.910 212 C 197.042 212, 192.820 212.321, 192.480 213.250 C 192.228 213.938, 191.680 241.050, 191.261 273.500 L 190.500 332.500 166 332.500 L 141.500 332.500 141 273.903 C 140.593 226.262, 140.243 214.996, 139.128 213.653 C 137.961 212.247, 135.462 212, 122.437 212 C 111.280 212, 106.898 212.340, 106.309 213.250 M 2.652 221.214 C 2.317 224.121, 1.871 234.600, 1.660 244.500 C 1.449 254.400, 1.423 258.450, 1.603 253.500 C 1.784 248.550, 2.428 238.269, 3.035 230.653 C 4.116 217.102, 3.858 210.747, 2.652 221.214 M 496.252 219.500 C 496.263 221.700, 496.468 222.482, 496.707 221.238 C 496.946 219.994, 496.937 218.194, 496.687 217.238 C 496.437 216.282, 496.241 217.300, 496.252 219.500 M 497.300 229 C 497.300 232.025, 497.487 233.262, 497.716 231.750 C 497.945 230.238, 497.945 227.762, 497.716 226.250 C 497.487 224.738, 497.300 225.975, 497.300 229 M 498.402 250 C 498.402 258.525, 498.556 262.012, 498.743 257.750 C 498.931 253.488, 498.931 246.512, 498.743 242.250 C 498.556 237.988, 498.402 241.475, 498.402 250 M 2.088 269.083 C 2.136 272.063, 2.543 276.750, 2.993 279.500 C 3.560 282.963, 3.646 281.426, 3.274 274.500 C 2.694 263.697, 1.945 260.277, 2.088 269.083 M 497.300 271 C 497.300 274.025, 497.487 275.262, 497.716 273.750 C 497.945 272.238, 497.945 269.762, 497.716 268.250 C 497.487 266.738, 497.300 267.975, 497.300 271 M 496.252 280.500 C 496.263 282.700, 496.468 283.482, 496.707 282.238 C 496.946 280.994, 496.937 279.194, 496.687 278.238 C 496.437 277.282, 496.241 278.300, 496.252 280.500 M 494.583 290.083 C 494.208 292.916, 494.101 295.435, 494.347 295.681 C 494.593 295.927, 495.112 293.820, 495.500 291 C 495.888 288.180, 495.994 285.661, 495.736 285.403 C 495.478 285.144, 494.959 287.251, 494.583 290.083 M 5.198 293 C 5.191 295.805, 7.720 306.346, 7.838 304 C 7.879 303.175, 7.303 299.800, 6.559 296.500 C 5.814 293.200, 5.202 291.625, 5.198 293 M 490.667 309.167 C 489.726 313.085, 489.138 316.471, 489.359 316.693 C 489.580 316.914, 490.544 313.902, 491.500 310 C 492.456 306.098, 493.045 302.711, 492.807 302.474 C 492.570 302.237, 491.607 305.249, 490.667 309.167 M 8.519 309.285 C 9.258 314.067, 16.985 338.348, 17.579 337.754 C 17.822 337.511, 17.310 335.329, 16.440 332.906 C 15.570 330.483, 13.301 323.325, 11.396 317 C 9.492 310.675, 8.197 307.203, 8.519 309.285 M 487.091 322.091 C 486.415 324.348, 486.045 326.379, 486.270 326.604 C 486.495 326.829, 487.233 325.166, 487.909 322.909 C 488.585 320.652, 488.955 318.621, 488.730 318.396 C 488.505 318.171, 487.767 319.834, 487.091 322.091 M 481.035 339.754 C 474.487 357.077, 462.222 379.629, 450.718 395.500 C 447.928 399.350, 446.398 401.884, 447.319 401.130 C 450.612 398.437, 465.005 375.700, 471.490 362.946 C 477.885 350.370, 485.515 332.182, 484.727 331.394 C 484.515 331.181, 482.853 334.943, 481.035 339.754 M 18.561 341 C 19.376 344.572, 35.598 377.012, 38.063 380 C 39.197 381.375, 38.708 380.025, 36.976 377 C 34.418 372.530, 24.680 352.861, 19.154 341 L 17.989 338.500 18.561 341 M 41.693 386.077 C 42.687 387.769, 44.139 389.682, 44.920 390.327 C 45.701 390.972, 45.079 389.587, 43.537 387.250 C 40.300 382.342, 39.024 381.530, 41.693 386.077 M 48 395 C 49.175 396.650, 50.361 398, 50.636 398 C 50.911 398, 50.175 396.650, 49 395 C 47.825 393.350, 46.639 392, 46.364 392 C 46.089 392, 46.825 393.350, 48 395 M 55.289 404.500 C 57.746 407.800, 60.800 411.400, 62.076 412.500 C 63.352 413.600, 62.536 412.250, 60.263 409.500 C 52.779 400.444, 50.750 398.405, 55.289 404.500 M 437.210 412.250 C 422.425 429.424, 405.492 444.414, 387.500 456.254 C 377.054 463.129, 376.002 464.001, 381.500 461.230 C 388.635 457.633, 409.993 440.980, 420.766 430.612 C 430.148 421.584, 446.898 403, 445.654 403 C 445.389 403, 441.589 407.163, 437.210 412.250 M 72.500 423.871 C 86.571 438.349, 108.767 456.288, 119.024 461.472 C 124.060 464.017, 121.609 461.995, 113 456.502 C 101.539 449.190, 89.828 439.704, 76.033 426.555 C 65.394 416.416, 64.860 416.010, 72.500 423.871 M 229.250 497.689 C 230.213 497.941, 231.787 497.941, 232.750 497.689 C 233.713 497.438, 232.925 497.232, 231 497.232 C 229.075 497.232, 228.287 497.438, 229.250 497.689 M 267.250 497.689 C 268.212 497.941, 269.788 497.941, 270.750 497.689 C 271.712 497.438, 270.925 497.232, 269 497.232 C 267.075 497.232, 266.288 497.438, 267.250 497.689" stroke="none" fill="#f7fafb" fill-rule="evenodd"/><path d="M 232 2.588 C 193.070 7.119, 169.661 13.613, 140.451 27.985 C 90.694 52.468, 52.468 90.694, 27.986 140.450 C 13.655 169.574, 5.993 196.891, 3.009 229.500 C -0.890 272.094, 7.989 319.011, 27.423 358.500 C 40.852 385.787, 53.496 403.529, 74.480 424.533 C 89.823 439.892, 100.613 448.696, 116.207 458.583 C 155.115 483.252, 196.166 496.008, 242 497.669 C 306.943 500.023, 371.809 475.715, 418.922 431.369 C 460.699 392.046, 486.719 342.090, 495.680 284 C 498.152 267.975, 498.155 232.058, 495.686 216 C 492.575 195.773, 487.081 175.238, 480.035 157.500 C 472.696 139.026, 454.136 106.989, 444.867 96.798 C 443.015 94.762, 439.475 90.542, 437 87.421 C 430.394 79.091, 411.525 61.287, 400.599 53.074 C 366.070 27.122, 327.914 11.226, 284 4.499 C 274.059 2.976, 239.558 1.708, 232 2.588 M 236.434 73.123 C 228.770 77.590, 186.182 103.049, 141.794 129.697 C 89.173 161.288, 60.869 178.836, 60.461 180.123 C 58.856 185.181, 55.353 185, 154.683 185 L 247.121 185 246.810 181.271 L 246.500 177.543 236.241 174.962 C 230.599 173.543, 225.485 171.885, 224.878 171.278 C 223.785 170.185, 223.949 155.717, 225.067 154.599 C 225.362 154.305, 228.809 155.149, 232.727 156.475 C 246.691 161.199, 255.902 161.688, 258.333 157.834 C 260.218 154.846, 258.010 153.029, 244.688 146.609 C 229.746 139.408, 225.255 135.323, 224.279 128.047 C 222.664 116.001, 228.268 107.774, 240.312 104.514 C 246.872 102.738, 247 102.639, 247 99.352 L 247 96 252.437 96 C 257.808 96, 257.877 96.038, 258.187 99.165 C 258.496 102.291, 258.627 102.363, 268.736 104.984 C 274.366 106.444, 279.196 107.863, 279.471 108.138 C 280.308 108.974, 274.835 122.126, 273.425 122.667 C 272.700 122.945, 269.720 122.499, 266.803 121.674 C 254.028 118.064, 245.536 118.713, 246.181 123.252 C 246.518 125.624, 250.140 127.755, 263.542 133.465 C 271.708 136.945, 278.425 142.728, 280.063 147.691 C 281.355 151.606, 280.663 159.477, 278.591 164.437 C 276.865 168.567, 271.602 172.435, 264.398 174.867 C 258.577 176.832, 258.500 176.908, 258.500 180.679 L 258.500 184.500 350.391 184.755 C 419.308 184.947, 442.634 184.719, 443.689 183.843 C 447.498 180.682, 445.262 179.055, 397.500 150.233 C 297.923 90.144, 254.987 65, 251.957 65 C 251.083 65, 244.098 68.655, 236.434 73.123 M 106.309 213.250 C 105.864 213.938, 105.275 241.050, 105 273.500 L 104.500 332.500 92.348 332.780 C 82.808 333, 79.917 333.395, 78.901 334.619 C 78.144 335.532, 77.431 339.873, 77.181 345.089 L 76.755 354 70.378 354 C 65.318 354, 63.584 354.416, 61.985 356.015 C 60.103 357.897, 60.007 358.928, 60.521 371.705 C 60.824 379.227, 61.561 385.971, 62.158 386.691 C 63.047 387.761, 97.761 388, 252.587 388 L 441.930 388 443.126 385.765 C 443.869 384.376, 444.352 378.477, 444.402 370.177 C 444.496 354.320, 444.296 354, 434.309 354 L 428 354 427.985 345.250 C 427.976 340.438, 427.544 335.825, 427.023 335 C 426.285 333.830, 423.353 333.428, 413.696 333.172 L 401.314 332.844 400.657 310.260 C 400.296 297.839, 400 271.520, 400 251.773 C 400 228.935, 399.623 215.165, 398.965 213.934 C 398.010 212.151, 396.732 212, 382.587 212 C 369.540 212, 367.040 212.247, 365.872 213.653 C 364.757 214.996, 364.407 226.262, 364 273.903 L 363.500 332.500 339 332.500 L 314.500 332.500 313.697 273.539 C 313.163 234.291, 312.537 214.147, 311.825 213.289 C 310.321 211.476, 280.480 211.441, 279.309 213.250 C 278.864 213.938, 278.275 241.050, 278 273.500 L 277.500 332.500 252.500 332.500 L 227.500 332.500 227 273.500 C 226.725 241.050, 226.136 213.938, 225.691 213.250 C 225.099 212.336, 220.589 212, 208.910 212 C 197.042 212, 192.820 212.321, 192.480 213.250 C 192.228 213.938, 191.680 241.050, 191.261 273.500 L 190.500 332.500 166 332.500 L 141.500 332.500 141 273.903 C 140.593 226.262, 140.243 214.996, 139.128 213.653 C 137.961 212.247, 135.462 212, 122.437 212 C 111.280 212, 106.898 212.340, 106.309 213.250" stroke="none" fill="#2e7cfa" fill-rule="evenodd"/></svg>