<svg xmlns="http://www.w3.org/2000/svg" width="536" height="466" viewBox="0 0 536 466" version="1.1"><path d="M 259.092 40.984 C 255.017 43.147, 251.192 45.445, 250.592 46.092 C 249.731 47.019, 266.275 38.657, 267.917 37.335 C 269.745 35.864, 265.197 37.744, 259.092 40.984 M 273.500 38.708 C 274.861 40.103, 288.758 47.587, 287.500 46.248 C 286.950 45.662, 283.350 43.495, 279.500 41.433 C 275.650 39.370, 272.950 38.144, 273.500 38.708 M 232.912 56.129 C 218.944 64.403, 211.600 69.246, 218 65.962 C 221.887 63.968, 247.385 48.800, 248.450 47.849 C 250.817 45.735, 247.255 47.633, 232.912 56.129 M 289 47.328 C 289 47.752, 302.410 55.852, 304.500 56.691 C 305.050 56.912, 304.413 56.284, 303.085 55.296 C 299.897 52.926, 289 46.761, 289 47.328 M 306 57.299 C 306 57.728, 315.738 63.821, 319.750 65.903 C 327.052 69.692, 316.266 62.551, 306.750 57.296 C 306.337 57.068, 306 57.070, 306 57.299 M 193.500 79.594 C 181.950 86.509, 172.050 92.645, 171.500 93.230 C 170.153 94.663, 169.425 95.076, 193.750 80.577 C 211.877 69.771, 216.251 66.945, 214.750 67.011 C 214.613 67.017, 205.050 72.679, 193.500 79.594 M 324.749 68.668 C 325.985 69.676, 329.360 71.774, 332.249 73.332 C 335.137 74.889, 336.488 75.339, 335.251 74.332 C 334.015 73.324, 330.640 71.226, 327.751 69.668 C 324.863 68.111, 323.512 67.661, 324.749 68.668 M 262.175 79.706 L 262.349 84.500 262.732 80.250 L 263.115 76 269.500 76 L 275.885 76 276.291 80.007 L 276.696 84.015 276.598 79.757 L 276.500 75.500 269.250 75.206 L 262 74.912 262.175 79.706 M 338 76.300 C 338 76.699, 349.443 83.855, 351.500 84.742 C 352.050 84.980, 351.488 84.347, 350.251 83.337 C 347.674 81.232, 338 75.675, 338 76.300 M 353 85.327 C 353 85.572, 356.262 87.689, 360.250 90.031 C 369.447 95.434, 369 95.196, 369 94.673 C 369 94.428, 365.738 92.311, 361.750 89.969 C 352.553 84.566, 353 84.804, 353 85.327 M 247.392 88.035 C 245.133 89.153, 242.208 91.256, 240.892 92.707 L 238.500 95.346 242.135 92.642 C 244.134 91.155, 247.509 89.070, 249.635 88.009 C 251.761 86.948, 253.050 86.062, 252.500 86.041 C 251.950 86.019, 249.652 86.917, 247.392 88.035 M 294.750 88.285 C 298.188 89.440, 301 90.861, 300.999 91.443 C 300.999 92.024, 300.080 94.918, 298.957 97.874 C 297.833 100.829, 297.083 103.416, 297.289 103.623 C 297.496 103.829, 298.860 100.984, 300.322 97.301 C 303.325 89.730, 303.403 89.884, 295.346 87.515 C 287.853 85.312, 287.451 85.831, 294.750 88.285 M 161.208 99.051 C 156.694 101.830, 153 104.356, 153 104.666 C 153 104.976, 154.012 104.584, 155.250 103.794 C 156.488 103.004, 160.313 100.638, 163.750 98.537 C 169.222 95.191, 170.787 94, 169.708 94 C 169.548 94, 165.723 96.273, 161.208 99.051 M 371.749 96.668 C 372.985 97.676, 376.360 99.774, 379.249 101.332 C 382.137 102.889, 383.488 103.339, 382.251 102.332 C 381.015 101.324, 377.640 99.226, 374.751 97.668 C 371.863 96.111, 370.512 95.661, 371.749 96.668 M 235.408 102.250 C 233.635 109.925, 235.506 121.341, 238.879 123.425 C 239.371 123.729, 238.893 122.295, 237.816 120.239 C 236.197 117.145, 235.925 114.989, 236.238 107.750 C 236.446 102.938, 236.513 99, 236.387 99 C 236.262 99, 235.821 100.463, 235.408 102.250 M 267.750 103.723 C 269.538 103.945, 272.462 103.945, 274.250 103.723 C 276.038 103.502, 274.575 103.320, 271 103.320 C 267.425 103.320, 265.962 103.502, 267.750 103.723 M 260.814 106.510 C 259.834 108.659, 259.996 109.367, 261.935 111.430 C 264.070 113.704, 282.815 122.518, 283.678 121.655 C 283.899 121.434, 279.549 119.342, 274.011 117.005 C 265.226 113.298, 261 110.324, 261 107.849 C 261 107.461, 261.707 106.436, 262.571 105.571 C 263.436 104.707, 263.651 104, 263.050 104 C 262.449 104, 261.443 105.129, 260.814 106.510 M 385 104.360 C 385 104.587, 388.262 106.699, 392.250 109.054 C 396.238 111.409, 400.512 113.987, 401.750 114.783 C 402.988 115.579, 404 115.994, 404 115.705 C 404 115.101, 393.087 108.116, 388.250 105.623 C 386.462 104.702, 385 104.134, 385 104.360 M 144.750 109.061 C 141.037 111.288, 138 113.337, 138 113.613 C 138 114.245, 147.240 109.086, 150.251 106.772 C 153.978 103.908, 151.888 104.778, 144.750 109.061 M 287 106.279 C 288.014 107.317, 295 108.810, 295.448 108.084 C 295.703 107.671, 295.369 107.326, 294.706 107.318 C 294.043 107.309, 291.925 106.956, 290 106.534 C 288.075 106.112, 286.725 105.997, 287 106.279 M 129.750 118.061 C 126.037 120.288, 123 122.337, 123 122.614 C 123 123.225, 122.970 123.241, 130.750 118.513 C 136.132 115.243, 137.810 113.982, 136.750 114.005 C 136.613 114.008, 133.463 115.833, 129.750 118.061 M 405 116.344 C 405 116.690, 419.807 125.825, 428.250 130.686 C 428.663 130.924, 429 130.895, 429 130.623 C 429 130.350, 423.938 127.104, 417.750 123.408 C 404.363 115.413, 405 115.766, 405 116.344 M 114.750 127.061 C 111.037 129.288, 108 131.337, 108 131.614 C 108 132.225, 107.970 132.241, 115.750 127.513 C 121.132 124.243, 122.810 122.982, 121.750 123.005 C 121.612 123.008, 118.463 124.833, 114.750 127.061 M 290.959 125.727 C 302.293 133.898, 305.250 142.061, 301.477 154.764 C 299.726 160.661, 295.812 165.015, 289.133 168.494 C 286.585 169.821, 284.860 170.928, 285.300 170.953 C 285.739 170.979, 287.539 170.255, 289.300 169.345 C 299.047 164.305, 302.886 158.545, 303.704 147.735 C 304.142 141.942, 303.893 139.675, 302.517 136.950 C 300.229 132.416, 295.243 127.186, 291.500 125.392 L 288.500 123.955 290.959 125.727 M 243 128.054 C 244.375 129.159, 246.850 130.731, 248.500 131.546 C 250.150 132.361, 250.652 132.460, 249.616 131.764 C 248.580 131.069, 246.490 129.488, 244.972 128.250 C 243.453 127.013, 241.826 126.010, 241.356 126.022 C 240.885 126.034, 241.625 126.949, 243 128.054 M 84 145.612 C 71.625 153.062, 61.050 159.638, 60.500 160.226 C 59.077 161.745, 58.939 161.824, 84.250 146.553 C 103.591 134.883, 108.337 131.820, 106.750 132.034 C 106.612 132.052, 96.375 138.163, 84 145.612 M 435 134.347 C 435 134.602, 437.137 136.052, 439.750 137.570 C 442.363 139.089, 445.625 140.985, 447 141.784 L 449.500 143.237 447.251 141.369 C 444.623 139.185, 435 133.670, 435 134.347 M 256 135.400 C 256 135.620, 259.938 137.448, 264.750 139.462 C 269.563 141.476, 274.512 144.074, 275.750 145.236 C 276.988 146.398, 278 146.857, 278 146.256 C 278 144.737, 272.559 141.530, 263.983 137.993 C 256.438 134.881, 256 134.739, 256 135.400 M 451.749 144.631 C 454.377 146.815, 464 152.330, 464 151.653 C 464 151.398, 461.863 149.948, 459.250 148.430 C 456.637 146.911, 453.375 145.015, 452 144.216 L 449.500 142.763 451.749 144.631 M 235.624 145.710 C 235.281 146.053, 235 151.160, 235 157.058 L 235 167.783 237.618 168.440 C 239.058 168.802, 240.429 168.904, 240.665 168.669 C 240.900 168.433, 239.947 167.953, 238.547 167.601 C 236.031 166.970, 236 166.842, 236 156.981 C 236 151.491, 236.128 147, 236.285 147 C 236.441 147, 239.190 147.921, 242.394 149.047 C 245.597 150.173, 248.731 150.915, 249.359 150.697 C 249.986 150.479, 248.925 149.953, 247 149.528 C 245.075 149.103, 241.868 147.930, 239.874 146.921 C 237.879 145.911, 235.967 145.366, 235.624 145.710 M 276.050 151.440 C 275.393 152.232, 273.875 153.071, 272.677 153.304 C 270.561 153.716, 270.559 153.731, 272.595 153.864 C 273.747 153.939, 275.505 153.100, 276.500 152 C 277.495 150.900, 278.070 150, 277.777 150 C 277.485 150, 276.707 150.648, 276.050 151.440 M 466.749 153.663 C 469.326 155.768, 479 161.325, 479 160.700 C 479 160.301, 467.557 153.145, 465.500 152.258 C 464.950 152.020, 465.512 152.653, 466.749 153.663 M 51.750 165.061 C 48.038 167.288, 45 169.337, 45 169.613 C 45 170.245, 54.240 165.086, 57.251 162.772 C 60.978 159.908, 58.888 160.778, 51.750 165.061 M 484.924 164.708 C 488.465 167.327, 497.901 172.448, 495.251 170.312 C 494.015 169.315, 490.640 167.243, 487.751 165.708 C 484.863 164.172, 483.591 163.722, 484.924 164.708 M 243.500 170 C 244.600 170.473, 246.175 170.859, 247 170.859 C 247.945 170.859, 247.761 170.542, 246.500 170 C 245.400 169.527, 243.825 169.141, 243 169.141 C 242.055 169.141, 242.239 169.458, 243.500 170 M 39.534 172.498 C 35.046 175.255, 33.650 177.949, 34.944 181.354 C 35.765 183.512, 36.570 183.736, 45.666 184.338 C 51.075 184.697, 102.210 184.992, 159.300 184.995 L 263.100 185 262.800 179.329 C 262.610 175.731, 262.034 173.565, 261.225 173.404 C 260.524 173.264, 260.411 173.379, 260.975 173.658 C 261.539 173.938, 262 176.409, 262 179.149 L 262 184.131 149.919 183.816 C 40.316 183.507, 37.807 183.457, 36.419 181.559 C 35.639 180.491, 35 179.233, 35 178.763 C 35 177.708, 38.653 174.075, 42 171.802 C 45.775 169.239, 44.045 169.727, 39.534 172.498 M 276 178.500 L 276 185 380.750 184.994 C 438.363 184.991, 489.248 184.696, 493.828 184.340 C 500.792 183.798, 502.383 183.345, 503.544 181.573 C 505.493 178.598, 504.292 175.201, 500.623 173.313 L 497.500 171.706 500.753 174.757 C 503.446 177.282, 503.858 178.213, 503.143 180.154 C 502.359 182.287, 501.519 182.554, 493.890 183.095 C 489.276 183.422, 438.587 183.765, 381.250 183.858 L 277 184.026 277 178.587 C 277 174.247, 277.354 173.054, 278.750 172.689 C 280.067 172.345, 279.943 172.203, 278.250 172.116 C 276.136 172.007, 276 172.392, 276 178.500 M 93.500 215.713 C 92.400 215.978, 91.050 216.623, 90.500 217.147 C 89.333 218.258, 88.074 363.001, 89.231 363 C 89.633 363, 90.083 330.412, 90.231 290.583 C 90.379 250.754, 90.874 217.791, 91.331 217.333 C 92.582 216.080, 126.032 215.672, 129.173 216.871 C 130.644 217.433, 132.054 218.823, 132.306 219.961 C 132.717 221.810, 132.752 221.792, 132.633 219.790 C 132.397 215.808, 128.827 215.021, 111.500 215.131 C 102.700 215.186, 94.600 215.448, 93.500 215.713 M 197.395 215.937 C 195.983 216.535, 195.081 218.092, 194.656 220.664 C 194.307 222.774, 194.118 255.775, 194.236 294 L 194.450 363.500 194.975 291.169 C 195.484 221.043, 195.559 218.795, 197.441 217.419 C 198.915 216.341, 203.034 216, 214.566 216 C 232.445 216, 235.859 216.516, 237.021 219.392 C 237.536 220.666, 237.892 220.907, 237.921 220 C 238.056 215.797, 236.832 215.509, 217.788 215.273 C 207.730 215.148, 198.553 215.447, 197.395 215.937 M 303 216.289 C 300.804 217.396, 300.424 218.397, 299.874 224.524 C 299.530 228.361, 299.273 261.200, 299.303 297.500 L 299.357 363.500 299.998 291.231 C 300.487 236.022, 300.929 218.671, 301.870 217.731 C 302.758 216.843, 308.363 216.500, 321.957 216.500 C 332.327 216.500, 340.292 216.169, 339.656 215.765 C 337.586 214.449, 305.748 214.904, 303 216.289 M 408 216.256 C 405.896 217.344, 405.398 218.497, 404.859 223.525 C 404.506 226.811, 404.259 259.650, 404.310 296.500 L 404.403 363.500 405.006 292 C 405.339 252.675, 405.954 219.757, 406.374 218.849 C 406.795 217.940, 408.120 216.934, 409.319 216.612 C 413.138 215.588, 442.751 215.955, 445.685 217.063 C 448.007 217.940, 448.273 217.896, 447.203 216.813 C 445.331 214.919, 411.512 214.439, 408 216.256 M 448.252 222.500 C 448.263 224.700, 448.468 225.482, 448.707 224.238 C 448.946 222.994, 448.937 221.194, 448.687 220.238 C 448.437 219.282, 448.241 220.300, 448.252 222.500 M 343.420 243.500 C 343.419 254.500, 343.565 259.136, 343.745 253.803 C 343.924 248.470, 343.925 239.470, 343.746 233.803 C 343.568 228.136, 343.421 232.500, 343.420 243.500 M 238.232 294.250 C 238.104 332.063, 238.338 363, 238.750 363 C 239.430 363.001, 239.421 313.629, 238.730 250 C 238.583 236.525, 238.359 256.438, 238.232 294.250 M 133.471 300 C 133.471 334.925, 133.596 349.212, 133.749 331.750 C 133.903 314.287, 133.903 285.712, 133.749 268.250 C 133.596 250.787, 133.471 265.075, 133.471 300 M 449.464 313.500 C 449.464 341, 449.592 352.106, 449.749 338.180 C 449.906 324.255, 449.906 301.755, 449.749 288.180 C 449.592 274.606, 449.464 286, 449.464 313.500 M 57.554 364.337 C 56.548 365.073, 55.976 366.310, 56.283 367.087 C 56.700 368.141, 56.862 368.062, 56.921 366.779 C 56.969 365.728, 58.267 364.691, 60.250 364.119 C 62.422 363.492, 62.817 363.150, 61.441 363.090 C 60.309 363.041, 58.559 363.602, 57.554 364.337 M 477.677 363.696 C 481.331 364.407, 481.918 366.200, 482.214 377.559 L 482.500 388.500 489 388.588 C 495.078 388.670, 495.136 388.651, 489.899 388.293 L 484.298 387.909 483.648 377.282 C 482.953 365.915, 481.651 362.873, 477.595 363.136 C 475.559 363.269, 475.561 363.284, 477.677 363.696 M 55 378.956 L 55 387.912 47.750 388.257 L 40.500 388.603 48.250 388.801 L 56 389 56 379.500 C 56 374.275, 55.775 370, 55.500 370 C 55.225 370, 55 374.030, 55 378.956 M 500.139 390.912 C 502.446 392.780, 502.500 393.197, 502.500 409.162 C 502.500 420.637, 502.117 426.170, 501.215 427.750 L 499.930 430 269.522 430 L 39.113 430 37.557 427.777 C 36.701 426.555, 36 426.035, 36 426.623 C 36 427.210, 36.823 428.435, 37.829 429.345 C 39.519 430.875, 57.045 431, 269.674 431 L 499.690 431 501.595 428.896 C 503.217 427.105, 503.552 424.863, 503.852 413.821 C 504.046 406.687, 503.907 398.865, 503.543 396.437 C 502.897 392.131, 500.908 389, 498.818 389 C 498.246 389, 498.841 389.860, 500.139 390.912 M 36.097 391.383 C 35.308 392.334, 35.044 397.877, 35.251 409.133 L 35.553 425.500 35.777 408.950 C 35.929 397.681, 36.383 392.017, 37.200 391.200 C 37.860 390.540, 38.140 390, 37.822 390 C 37.505 390, 36.728 390.622, 36.097 391.383" stroke="none" fill="#bcd5fc" fill-rule="evenodd"/><path d="M 258 42.778 C 252.225 45.949, 240.750 52.563, 232.500 57.477 C 199.504 77.127, 161.270 100.079, 117.500 126.512 C 92.200 141.791, 63.907 158.839, 54.626 164.396 C 36.995 174.953, 34.112 177.472, 35.880 180.776 C 36.774 182.446, 38.515 182.769, 49.701 183.339 C 56.741 183.698, 107.387 183.994, 162.250 183.996 L 262 184 262 179.107 C 262 174.003, 261.138 173, 256.751 173 C 255.605 173, 250.241 171.811, 244.833 170.358 L 235 167.715 235 157.024 C 235 151.144, 235.282 146.051, 235.627 145.707 C 235.972 145.362, 237.561 145.756, 239.160 146.583 C 246.892 150.581, 265.183 154.559, 270.932 153.492 C 274.705 152.793, 278 150.474, 278 148.519 C 278 146.384, 273.474 143.052, 266.996 140.420 C 249.414 133.276, 240.121 126.976, 236.304 119.613 C 235.419 117.906, 234.790 113.925, 234.764 109.871 C 234.684 97.111, 241.503 88.837, 254.956 85.372 L 262 83.557 262 79.235 L 262 74.912 269.250 75.206 L 276.500 75.500 276.799 79.586 L 277.099 83.673 283.799 84.894 C 291.271 86.257, 299.840 88.611, 301.756 89.828 C 302.723 90.442, 302.411 92.105, 300.399 97.063 C 298.962 100.603, 297.169 104.697, 296.414 106.161 L 295.041 108.822 286.277 106.411 C 272.849 102.716, 261 103.390, 261 107.849 C 261 110.197, 264.959 113.211, 271.738 116.025 C 291.319 124.153, 298.280 128.820, 302.216 136.462 C 305.060 141.983, 304.272 153.154, 300.596 159.427 C 297.485 164.735, 290.469 169.570, 282.750 171.724 L 277 173.328 277 178.677 L 277 184.026 381.250 183.841 C 438.587 183.739, 489.240 183.473, 493.811 183.250 C 501.231 182.887, 502.210 182.611, 502.943 180.672 C 504.244 177.228, 502.631 175.506, 492.248 169.252 C 450.792 144.286, 362.952 91.622, 342.500 79.472 C 328.750 71.303, 312.100 61.405, 305.500 57.476 C 288.652 47.446, 270.154 36.999, 269.257 37.006 C 268.841 37.010, 263.775 39.607, 258 42.778 M 93.352 216.661 C 92.171 216.909, 90.939 218.100, 90.616 219.306 C 90.292 220.513, 90.021 253.337, 90.014 292.250 L 90 363 77.250 363.006 C 62.432 363.012, 57.493 364.032, 56.626 367.266 C 56.297 368.495, 56.021 373.887, 56.014 379.250 L 56 389 48.223 389 C 35.817 389, 36 388.703, 36 408.834 C 36 422.349, 36.298 425.981, 37.557 427.777 L 39.113 430 269.522 430 L 499.930 430 501.215 427.750 C 502.116 426.172, 502.500 420.660, 502.500 409.286 C 502.500 389.413, 502.683 389.728, 490.718 389 L 482.500 388.500 482.218 377.346 C 481.995 368.529, 481.597 365.910, 480.317 364.846 C 479.166 363.890, 474.407 363.401, 463.897 363.159 L 449.098 362.819 448.799 290.959 C 448.560 233.643, 448.237 218.836, 447.200 217.799 C 446.226 216.825, 441.175 216.500, 427.033 216.500 C 416.657 216.500, 407.792 216.875, 407.333 217.332 C 405.689 218.974, 405.186 237.476, 405.094 299.750 L 405 363 374.500 363 L 344 363 344 324.163 C 344 274.258, 342.906 219.466, 341.876 217.799 C 340.752 215.979, 303.682 215.921, 301.865 217.736 C 300.914 218.686, 300.526 235.607, 300.183 290.986 L 299.738 363 268.888 363 L 238.039 363 237.769 291.050 C 237.555 233.689, 237.237 218.836, 236.202 217.800 C 234.159 215.754, 200.186 215.364, 197.500 217.355 C 195.537 218.811, 195.495 220.170, 195.212 290.919 L 194.925 363 163.988 363 L 133.051 363 132.776 291.050 C 132.556 233.711, 132.237 218.835, 131.203 217.800 C 130.251 216.846, 125.321 216.461, 112.703 216.355 C 103.241 216.276, 94.533 216.413, 93.352 216.661" stroke="none" fill="#fbfbfc" fill-rule="evenodd"/></svg>